<svg width="150" height="190" xmlns="http://www.w3.org/2000/svg" style="vector-effect: non-scaling-stroke;" xml:space="preserve" version="1.1" enable-background="new 0 0 200 200">

 <g>
  <title>Layer 1</title>
  <path id="svg_12" d="m2.88507,5.85548l143.99992,0l0,145.59997l-72.00001,36.40003l-71.99999,-36.40003l0.00008,-145.59997z" fill="#000000"/>
  <path id="svg_3" d="m4.88507,6.85548l139.99991,0l0,143.19997l-70,35.80003l-69.99999,-35.80003l0.00008,-143.19997z" fill="#8a38d1"/>
  <path id="svg_13" fill="#000000" d="m129,42.84868l0,18.95428c-0.71504,3.03312 -2.29935,5.81878 -4.63958,8.07829c-3.2918,3.17383 -7.67905,4.92308 -12.34697,4.92308l-29.34934,0l0,-5.7706c0,-2.43854 -1.98652,-4.43362 -4.41395,-4.43362l-7.50083,0c-2.42634,0 -4.41232,1.99562 -4.41232,4.43362l0,5.7706l-29.35097,0c-4.66792,0 -9.05408,-1.74925 -12.34697,-4.92308c-2.34241,-2.25623 -3.924,-5.04407 -4.63904,-8.0761l0,-18.95647c0,-4.08596 3.32995,-7.43115 7.39783,-7.43115l94.20543,0c4.06733,0 7.39674,3.3452 7.39674,7.43115zm-50.74931,42.15932c0.38858,0 0.71286,-0.32631 0.71286,-0.71612l0,-5.77169l0,-3.71585l0,-5.7706c0,-0.38982 -0.32427,-0.71831 -0.71286,-0.71831l-7.50138,0c-0.38695,0 -0.71504,0.3285 -0.71504,0.71831l0,5.7706l0,3.71585l0,5.77169c0,0.38982 0.32809,0.71612 0.71504,0.71612l7.50138,0zm48.67286,-12.44676c-3.98722,3.84177 -9.27917,5.95949 -14.91011,5.95949l-29.34934,0l0,5.77169c0,2.43526 -1.98652,4.43197 -4.41395,4.43197l-7.50083,0c-2.42634,0 -4.41232,-1.99617 -4.41232,-4.43197l0,-5.77169l-29.35097,0c-5.62985,0 -10.92289,-2.11771 -14.90956,-5.95949c-0.75755,-0.73091 -1.45079,-1.50671 -2.07645,-2.32083l0,40.23488c0,4.08924 3.32995,7.4317 7.39783,7.4317l94.20543,0c4.06733,0 7.39674,-3.34246 7.39674,-7.4317l0,-40.23488c-0.62675,0.81413 -1.31726,1.58993 -2.07645,2.32083zm-35.36723,-49.82973c-1.44534,-1.45196 -3.33921,-2.17739 -5.23145,-2.17739l-23.64755,0c-1.89333,0 -3.78829,0.72543 -5.23254,2.17739c-1.44316,1.45086 -2.16583,3.35286 -2.16583,5.25431l0,3.71585l6.28657,0l0,-3.71585c0,-0.21079 0.05722,-0.51903 0.327,-0.78839c0.26705,-0.26937 0.57334,-0.32795 0.7848,-0.32795l23.64809,0c0.20819,0 0.51557,0.05858 0.78316,0.32795c0.26923,0.26937 0.32645,0.57761 0.32645,0.78839l0,3.71585l6.28657,0l0,-3.71585c-0.00054,-1.90145 -0.72212,-3.8029 -2.16528,-5.25431z"/>
  <path id="svg_1" fill="#81dbd2" d="m127,43.93265l0,18.1755c-0.6888,2.9085 -2.21497,5.5797 -4.46932,7.74637c-3.171,3.04342 -7.39725,4.7208 -11.89387,4.7208l-28.2723,0l0,-5.5335c0,-2.33835 -1.91362,-4.25145 -4.25197,-4.25145l-7.22557,0c-2.3373,0 -4.2504,1.91362 -4.2504,4.25145l0,5.5335l-28.27387,0c-4.49662,0 -8.72182,-1.67737 -11.89387,-4.7208c-2.25645,-2.16352 -3.78,-4.83682 -4.4688,-7.74427l0,-18.1776c0,-3.91807 3.20775,-7.12582 7.12635,-7.12582l90.74835,0c3.91807,0 7.1253,3.20775 7.1253,7.12582zm-48.88695,40.4271c0.37432,0 0.6867,-0.3129 0.6867,-0.6867l0,-5.53455l0,-3.56317l0,-5.5335c0,-0.3738 -0.31237,-0.6888 -0.6867,-0.6888l-7.2261,0c-0.37275,0 -0.6888,0.315 -0.6888,0.6888l0,5.5335l0,3.56317l0,5.53455c0,0.3738 0.31605,0.6867 0.6888,0.6867l7.2261,0zm46.8867,-11.93535c-3.8409,3.68392 -8.93865,5.71462 -14.36295,5.71462l-28.2723,0l0,5.53455c0,2.3352 -1.91362,4.24987 -4.25197,4.24987l-7.22557,0c-2.3373,0 -4.2504,-1.91415 -4.2504,-4.24987l0,-5.53455l-28.27387,0c-5.42325,0 -10.52205,-2.0307 -14.36242,-5.71462c-0.72975,-0.70087 -1.39755,-1.4448 -2.00025,-2.22547l0,38.58172c0,3.92122 3.20775,7.12635 7.12635,7.12635l90.74835,0c3.91807,0 7.1253,-3.20512 7.1253,-7.12635l0,-38.58172c-0.60375,0.78067 -1.26892,1.5246 -2.00025,2.22547zm-34.06935,-47.78235c-1.3923,-1.3923 -3.21667,-2.08792 -5.03947,-2.08792l-22.77975,0c-1.82385,0 -3.64927,0.69562 -5.04052,2.08792c-1.3902,1.39125 -2.08635,3.2151 -2.08635,5.03842l0,3.56317l6.05587,0l0,-3.56317c0,-0.20212 0.05512,-0.4977 0.315,-0.756c0.25725,-0.2583 0.5523,-0.31447 0.756,-0.31447l22.78027,0c0.20055,0 0.49665,0.05617 0.75442,0.31447c0.25935,0.2583 0.31447,0.55387 0.31447,0.756l0,3.56317l6.05587,0l0,-3.56317c-0.00052,-1.82332 -0.69562,-3.64665 -2.08582,-5.03842z"/>
  <path id="svg_5" d="m-336,88.89999" opacity="NaN" fill="#81dbd2"/>
  <text style="vector-effect: non-scaling-stroke;" font-weight="bold" transform="rotate(-28, 83.8083, 108.067)" xml:space="preserve" text-anchor="start" font-family="'Raleway'" font-size="24" id="svg_8" y="116.89999" x="35" fill="#000000">Portfolio</text>
  <text style="vector-effect: non-scaling-stroke;" font-weight="bold" transform="rotate(-28, 82.8083, 110.067)" xml:space="preserve" text-anchor="start" font-family="'Raleway'" font-size="24" id="svg_9" y="118.89999" x="34" fill="#3885d1">Portfolio</text>
  <text style="vector-effect: non-scaling-stroke;" font-weight="bold" transform="rotate(-28, 92.0667, 129.067)" xml:space="preserve" text-anchor="start" font-family="'Raleway'" font-size="25" id="svg_10" y="137.89999" x="64" fill="#020202">MAX</text>
  <text font-weight="bold" transform="rotate(-28, 92.0667, 131.067)" xml:space="preserve" text-anchor="start" font-family="'Raleway'" font-size="25" id="svg_11" y="139.89999" x="64" fill="#3885d1">MAX</text>
 </g>
</svg>